<svg width="550" height="710" viewBox="0 0 550 710" fill="none" xmlns="http://www.w3.org/2000/svg">
<rect y="110" width="550" height="600" rx="25" fill="url(#paint0_linear_2926_7823)"/>
<path d="M171.281 579.414L186.422 554.875H192.305V589H186.422V564.438L171.281 589H165.422V554.875H171.281V579.414ZM221.18 554.875V559.562H205.336V589H199.477V554.875H221.18ZM239.039 576.273H230.156V571.609H239.039C240.586 571.609 241.836 571.359 242.789 570.859C243.742 570.359 244.438 569.672 244.875 568.797C245.328 567.906 245.555 566.891 245.555 565.75C245.555 564.672 245.328 563.664 244.875 562.727C244.438 561.773 243.742 561.008 242.789 560.43C241.836 559.852 240.586 559.562 239.039 559.562H231.961V589H226.078V554.875H239.039C241.68 554.875 243.922 555.344 245.766 556.281C247.625 557.203 249.039 558.484 250.008 560.125C250.977 561.75 251.461 563.609 251.461 565.703C251.461 567.906 250.977 569.797 250.008 571.375C249.039 572.953 247.625 574.164 245.766 575.008C243.922 575.852 241.68 576.273 239.039 576.273ZM266.461 559.422L256.266 589H250.102L262.945 554.875H266.883L266.461 559.422ZM274.992 589L264.773 559.422L264.328 554.875H268.289L281.18 589H274.992ZM274.5 576.344V581.008H255.938V576.344H274.5ZM296.086 554.875V589H290.25V554.875H296.086ZM306.797 554.875V559.562H279.633V554.875H306.797ZM315.656 567.977H324.234C326.828 567.977 329.047 568.414 330.891 569.289C332.734 570.148 334.141 571.359 335.109 572.922C336.078 574.484 336.562 576.305 336.562 578.383C336.562 579.945 336.289 581.375 335.742 582.672C335.195 583.969 334.391 585.094 333.328 586.047C332.266 586.984 330.969 587.711 329.438 588.227C327.922 588.742 326.188 589 324.234 589H311.578V554.875H317.484V584.336H324.234C325.719 584.336 326.938 584.062 327.891 583.516C328.844 582.953 329.547 582.219 330 581.312C330.469 580.406 330.703 579.414 330.703 578.336C330.703 577.289 330.469 576.336 330 575.477C329.547 574.617 328.844 573.93 327.891 573.414C326.938 572.898 325.719 572.641 324.234 572.641H315.656V567.977ZM380.883 574.539L365.109 568.656V563.195L385.359 571.891V575.594L380.883 574.539ZM365.109 579.602L380.93 573.602L385.359 572.664V576.344L365.109 585.062V579.602Z" fill="url(#paint1_linear_2926_7823)"/>
<rect width="550" height="100" rx="25" fill="#0F0F0F"/>
<path fill-rule="evenodd" clip-rule="evenodd" d="M498.857 52.0769L480 68.5765L475.287 64.4523L491.787 50.0148L475.287 35.5773L480 31.4531L498.857 47.9527C499.482 48.4997 499.833 49.2414 499.833 50.0148C499.833 50.7882 499.482 51.5299 498.857 52.0769Z" fill="#A1A1A1"/>
<rect y="25" width="50" height="50" rx="10" fill="url(#paint2_linear_2926_7823)"/>
<path d="M88.3828 66H81.0938L81.1406 61.3359H88.3828C90.4922 61.3359 92.2578 60.875 93.6797 59.9531C95.1172 59.0312 96.1953 57.7109 96.9141 55.9922C97.6484 54.2734 98.0156 52.2266 98.0156 49.8516V48C98.0156 46.1562 97.8047 44.5234 97.3828 43.1016C96.9766 41.6797 96.3672 40.4844 95.5547 39.5156C94.7578 38.5469 93.7734 37.8125 92.6016 37.3125C91.4453 36.8125 90.1094 36.5625 88.5938 36.5625H80.9531V31.875H88.5938C90.8594 31.875 92.9297 32.2578 94.8047 33.0234C96.6797 33.7734 98.2969 34.8594 99.6562 36.2812C101.031 37.7031 102.086 39.4062 102.82 41.3906C103.555 43.375 103.922 45.5938 103.922 48.0469V49.8516C103.922 52.3047 103.555 54.5234 102.82 56.5078C102.086 58.4922 101.031 60.1953 99.6562 61.6172C98.2812 63.0234 96.6406 64.1094 94.7344 64.875C92.8438 65.625 90.7266 66 88.3828 66ZM84.3516 31.875V66H78.4688V31.875H84.3516ZM115.312 40.6406V66H109.641V40.6406H115.312ZM109.266 33.9844C109.266 33.125 109.547 32.4141 110.109 31.8516C110.688 31.2734 111.484 30.9844 112.5 30.9844C113.5 30.9844 114.289 31.2734 114.867 31.8516C115.445 32.4141 115.734 33.125 115.734 33.9844C115.734 34.8281 115.445 35.5312 114.867 36.0938C114.289 36.6562 113.5 36.9375 112.5 36.9375C111.484 36.9375 110.688 36.6562 110.109 36.0938C109.547 35.5312 109.266 34.8281 109.266 33.9844ZM131.859 61.9688C132.781 61.9688 133.609 61.7891 134.344 61.4297C135.094 61.0547 135.695 60.5391 136.148 59.8828C136.617 59.2266 136.875 58.4688 136.922 57.6094H142.242C142.211 59.25 141.727 60.7422 140.789 62.0859C139.852 63.4297 138.609 64.5 137.062 65.2969C135.516 66.0781 133.805 66.4688 131.93 66.4688C129.992 66.4688 128.305 66.1406 126.867 65.4844C125.43 64.8125 124.234 63.8906 123.281 62.7188C122.328 61.5469 121.609 60.1953 121.125 58.6641C120.656 57.1328 120.422 55.4922 120.422 53.7422V52.9219C120.422 51.1719 120.656 49.5312 121.125 48C121.609 46.4531 122.328 45.0938 123.281 43.9219C124.234 42.75 125.43 41.8359 126.867 41.1797C128.305 40.5078 129.984 40.1719 131.906 40.1719C133.938 40.1719 135.719 40.5781 137.25 41.3906C138.781 42.1875 139.984 43.3047 140.859 44.7422C141.75 46.1641 142.211 47.8203 142.242 49.7109H136.922C136.875 48.7734 136.641 47.9297 136.219 47.1797C135.812 46.4141 135.234 45.8047 134.484 45.3516C133.75 44.8984 132.867 44.6719 131.836 44.6719C130.695 44.6719 129.75 44.9062 129 45.375C128.25 45.8281 127.664 46.4531 127.242 47.25C126.82 48.0312 126.516 48.9141 126.328 49.8984C126.156 50.8672 126.07 51.875 126.07 52.9219V53.7422C126.07 54.7891 126.156 55.8047 126.328 56.7891C126.5 57.7734 126.797 58.6562 127.219 59.4375C127.656 60.2031 128.25 60.8203 129 61.2891C129.75 61.7422 130.703 61.9688 131.859 61.9688ZM157.758 66.4688C155.883 66.4688 154.188 66.1641 152.672 65.5547C151.172 64.9297 149.891 64.0625 148.828 62.9531C147.781 61.8438 146.977 60.5391 146.414 59.0391C145.852 57.5391 145.57 55.9219 145.57 54.1875V53.25C145.57 51.2656 145.859 49.4688 146.438 47.8594C147.016 46.25 147.82 44.875 148.852 43.7344C149.883 42.5781 151.102 41.6953 152.508 41.0859C153.914 40.4766 155.438 40.1719 157.078 40.1719C158.891 40.1719 160.477 40.4766 161.836 41.0859C163.195 41.6953 164.32 42.5547 165.211 43.6641C166.117 44.7578 166.789 46.0625 167.227 47.5781C167.68 49.0938 167.906 50.7656 167.906 52.5938V55.0078H148.312V50.9531H162.328V50.5078C162.297 49.4922 162.094 48.5391 161.719 47.6484C161.359 46.7578 160.805 46.0391 160.055 45.4922C159.305 44.9453 158.305 44.6719 157.055 44.6719C156.117 44.6719 155.281 44.875 154.547 45.2812C153.828 45.6719 153.227 46.2422 152.742 46.9922C152.258 47.7422 151.883 48.6484 151.617 49.7109C151.367 50.7578 151.242 51.9375 151.242 53.25V54.1875C151.242 55.2969 151.391 56.3281 151.688 57.2812C152 58.2188 152.453 59.0391 153.047 59.7422C153.641 60.4453 154.359 61 155.203 61.4062C156.047 61.7969 157.008 61.9922 158.086 61.9922C159.445 61.9922 160.656 61.7188 161.719 61.1719C162.781 60.625 163.703 59.8516 164.484 58.8516L167.461 61.7344C166.914 62.5312 166.203 63.2969 165.328 64.0312C164.453 64.75 163.383 65.3359 162.117 65.7891C160.867 66.2422 159.414 66.4688 157.758 66.4688Z" fill="#A1A1A1"/>
<path d="M9 37.5556C9 36.6126 9.3746 35.7082 10.0414 35.0414C10.7082 34.3746 11.6126 34 12.5556 34H37.4444C38.3874 34 39.2918 34.3746 39.9586 35.0414C40.6254 35.7082 41 36.6126 41 37.5556V62.4444C41 63.3874 40.6254 64.2918 39.9586 64.9586C39.2918 65.6254 38.3874 66 37.4444 66H12.5556C11.6126 66 10.7082 65.6254 10.0414 64.9586C9.3746 64.2918 9 63.3874 9 62.4444V37.5556Z" stroke="#0F0F0F" stroke-width="4" stroke-linecap="round" stroke-linejoin="round"/>
<path d="M18.7776 44.6684C19.2685 44.6684 19.6665 44.2704 19.6665 43.7795C19.6665 43.2886 19.2685 42.8906 18.7776 42.8906C18.2866 42.8906 17.8887 43.2886 17.8887 43.7795C17.8887 44.2704 18.2866 44.6684 18.7776 44.6684Z" fill="#0F0F0F" stroke="#0F0F0F" stroke-width="3.5" stroke-linecap="round" stroke-linejoin="round"/>
<path d="M31.2209 44.6684C31.7118 44.6684 32.1098 44.2704 32.1098 43.7795C32.1098 43.2886 31.7118 42.8906 31.2209 42.8906C30.73 42.8906 30.332 43.2886 30.332 43.7795C30.332 44.2704 30.73 44.6684 31.2209 44.6684Z" fill="#0F0F0F" stroke="#0F0F0F" stroke-width="3.5" stroke-linecap="round" stroke-linejoin="round"/>
<path d="M31.2209 57.0981C31.7118 57.0981 32.1098 56.7001 32.1098 56.2092C32.1098 55.7183 31.7118 55.3203 31.2209 55.3203C30.73 55.3203 30.332 55.7183 30.332 56.2092C30.332 56.7001 30.73 57.0981 31.2209 57.0981Z" fill="#0F0F0F" stroke="#0F0F0F" stroke-width="3.5" stroke-linecap="round" stroke-linejoin="round"/>
<path d="M18.7776 57.0981C19.2685 57.0981 19.6665 56.7001 19.6665 56.2092C19.6665 55.7183 19.2685 55.3203 18.7776 55.3203C18.2866 55.3203 17.8887 55.7183 17.8887 56.2092C17.8887 56.7001 18.2866 57.0981 18.7776 57.0981Z" fill="#0F0F0F" stroke="#0F0F0F" stroke-width="3.5" stroke-linecap="round" stroke-linejoin="round"/>
<defs>
<linearGradient id="paint0_linear_2926_7823" x1="275" y1="710" x2="275" y2="110" gradientUnits="userSpaceOnUse">
<stop stop-color="#131313"/>
<stop offset="1" stop-color="#212121"/>
</linearGradient>
<linearGradient id="paint1_linear_2926_7823" x1="162" y1="573" x2="388" y2="573" gradientUnits="userSpaceOnUse">
<stop stop-color="#7666C4"/>
<stop offset="1" stop-color="#66BBC4"/>
</linearGradient>
<linearGradient id="paint2_linear_2926_7823" x1="0" y1="50" x2="50" y2="50" gradientUnits="userSpaceOnUse">
<stop stop-color="#7666C4"/>
<stop offset="1" stop-color="#66BBC4"/>
</linearGradient>
</defs>
</svg>
