<svg width="1130" height="90" viewBox="0 0 1130 90" fill="none" xmlns="http://www.w3.org/2000/svg">
<rect width="1130" height="90" rx="25" fill="white"/>
<rect x="25" y="17" width="56" height="56" rx="28" fill="#7666C4"/>
<path d="M44.0007 38.131C43.9962 38.2318 44.0136 38.3323 44.0519 38.4265C44.0903 38.5207 44.1487 38.6065 44.2236 38.6786C44.2985 38.7508 44.3884 38.8078 44.4876 38.8461C44.5868 38.8845 44.6933 38.9033 44.8006 38.9015H47.5388C47.9969 38.9015 48.362 38.549 48.4217 38.1217C48.7204 36.0753 50.214 34.5842 52.8759 34.5842C55.1528 34.5842 57.2371 35.6542 57.2371 38.2277C57.2371 40.2086 55.9958 41.1194 54.0342 42.5045C51.8005 44.0299 50.0314 45.8111 50.1576 48.7028L50.1675 49.3797C50.171 49.5843 50.26 49.7795 50.4152 49.9231C50.5704 50.0666 50.7795 50.1471 50.9973 50.1471H53.6891C53.9091 50.1471 54.1202 50.0649 54.2758 49.9186C54.4314 49.7724 54.5188 49.574 54.5188 49.3672V49.0397C54.5188 46.7999 55.4249 46.1479 57.8711 44.4042C59.8924 42.9599 62 41.3565 62 37.9906C62 33.2772 57.7649 31 53.1281 31C48.9229 31 44.316 32.8405 44.0007 38.131ZM49.1685 56.1083C49.1685 57.7709 50.5791 59 52.5207 59C54.5421 59 55.9327 57.7709 55.9327 56.1083C55.9327 54.3864 54.5387 53.176 52.5174 53.176C50.5791 53.176 49.1685 54.3864 49.1685 56.1083Z" fill="white"/>
<path d="M112.793 30.5625V59H107.891V30.5625H112.793ZM124.395 43.0039V46.8906H111.543V43.0039H124.395ZM126.016 30.5625V34.4688H111.543V30.5625H126.016ZM137.52 34.3516L129.023 59H123.887L134.59 30.5625H137.871L137.52 34.3516ZM144.629 59L136.113 34.3516L135.742 30.5625H139.043L149.785 59H144.629ZM144.219 48.4531V52.3398H128.75V48.4531H144.219ZM167.715 55.2109L175.195 61.1484L172.012 63.9414L164.668 58.0625L167.715 55.2109ZM175.254 44V45.5625C175.254 47.7109 174.974 49.638 174.414 51.3438C173.854 53.0495 173.053 54.5013 172.012 55.6992C170.97 56.8971 169.727 57.8151 168.281 58.4531C166.836 59.0781 165.234 59.3906 163.477 59.3906C161.732 59.3906 160.137 59.0781 158.691 58.4531C157.259 57.8151 156.016 56.8971 154.961 55.6992C153.906 54.5013 153.086 53.0495 152.5 51.3438C151.927 49.638 151.641 47.7109 151.641 45.5625V44C151.641 41.8516 151.927 39.931 152.5 38.2383C153.073 36.5326 153.88 35.0807 154.922 33.8828C155.977 32.6719 157.22 31.7539 158.652 31.1289C160.098 30.4909 161.693 30.1719 163.438 30.1719C165.195 30.1719 166.797 30.4909 168.242 31.1289C169.701 31.7539 170.951 32.6719 171.992 33.8828C173.034 35.0807 173.835 36.5326 174.395 38.2383C174.967 39.931 175.254 41.8516 175.254 44ZM170.332 45.5625V43.9609C170.332 42.3724 170.176 40.9727 169.863 39.7617C169.564 38.5378 169.115 37.5156 168.516 36.6953C167.93 35.862 167.207 35.237 166.348 34.8203C165.501 34.3906 164.531 34.1758 163.438 34.1758C162.37 34.1758 161.413 34.3906 160.566 34.8203C159.72 35.237 158.997 35.862 158.398 36.6953C157.799 37.5156 157.344 38.5378 157.031 39.7617C156.719 40.9727 156.562 42.3724 156.562 43.9609V45.5625C156.562 47.151 156.719 48.5573 157.031 49.7812C157.344 51.0052 157.799 52.0404 158.398 52.8867C159.01 53.7201 159.74 54.3516 160.586 54.7812C161.445 55.1979 162.409 55.4062 163.477 55.4062C164.57 55.4062 165.54 55.1979 166.387 54.7812C167.233 54.3516 167.949 53.7201 168.535 52.8867C169.121 52.0404 169.564 51.0052 169.863 49.7812C170.176 48.5573 170.332 47.151 170.332 45.5625Z" fill="#8A8B8F"/>
<path fill-rule="evenodd" clip-rule="evenodd" d="M1088.86 47.0769L1070 63.5765L1065.29 59.4523L1081.79 45.0148L1065.29 30.5773L1070 26.4531L1088.86 42.9527C1089.48 43.4997 1089.83 44.2414 1089.83 45.0148C1089.83 45.7882 1089.48 46.5299 1088.86 47.0769Z" fill="#8A8B8F"/>
</svg>
